M48
; DRILL file KiCad 10.0.4 date 2026-09-01T23:21:36
; FORMAT={-:-/ absolute / metric / decimal}
; #@! TF.CreationDate,2026-09-01T23:21:36-05:00
; #@! TF.GenerationSoftware,Kicad,Pcbnew,10.0.4
; #@! TF.FileFunction,Plated,1,2,PTH
FMAT,2
METRIC
; #@! TA.AperFunction,Plated,PTH,ViaDrill
T1C0.300
; #@! TA.AperFunction,Plated,PTH,ComponentDrill
T2C0.500
; #@! TA.AperFunction,Plated,PTH,ComponentDrill
T3C0.780
; #@! TA.AperFunction,Plated,PTH,ComponentDrill
T4C0.800
; #@! TA.AperFunction,Plated,PTH,ComponentDrill
T5C1.000
%
G90
G05
T1
X45.0Y-44.5
X73.5Y-37.0
X79.0Y-127.0
X107.0Y-37.0
X111.0Y-122.0
X139.0Y-37.0
X146.5Y-121.0
X181.5Y-120.0
X218.5Y-101.0
X219.5Y-93.5
T2
X178.0Y-102.0
X178.0Y-103.0
X184.5Y-39.5
X184.5Y-40.5
X193.0Y-39.5
X193.0Y-40.5
T3
X50.11Y-106.03
X50.11Y-113.97
X52.65Y-106.03
X52.65Y-113.97
X54.11Y-43.53
X54.11Y-51.47
X55.19Y-106.03
X55.19Y-113.97
X56.65Y-43.53
X56.65Y-51.47
X57.73Y-106.03
X57.73Y-113.97
X59.19Y-43.53
X59.19Y-51.47
X60.27Y-106.03
X60.27Y-113.97
X61.73Y-43.53
X61.73Y-51.47
X62.81Y-106.03
X62.81Y-113.97
X64.27Y-43.53
X64.27Y-51.47
X65.35Y-106.03
X65.35Y-113.97
X66.81Y-43.53
X66.81Y-51.47
X67.89Y-106.03
X67.89Y-113.97
X69.35Y-43.53
X69.35Y-51.47
X71.89Y-43.53
X71.89Y-51.47
X83.42Y-106.0
X83.42Y-113.94
X85.96Y-106.0
X85.96Y-113.94
X86.42Y-43.5
X86.42Y-51.44
X88.5Y-106.0
X88.5Y-113.94
X88.96Y-43.5
X88.96Y-51.44
X91.04Y-106.0
X91.04Y-113.94
X91.5Y-43.5
X91.5Y-51.44
X93.58Y-106.0
X93.58Y-113.94
X94.04Y-43.5
X94.04Y-51.44
X96.12Y-106.0
X96.12Y-113.94
X96.58Y-43.5
X96.58Y-51.44
X98.66Y-106.0
X98.66Y-113.94
X99.12Y-43.5
X99.12Y-51.44
X101.2Y-106.0
X101.2Y-113.94
X101.66Y-43.5
X101.66Y-51.44
X104.2Y-43.5
X104.2Y-51.44
X117.96Y-106.5
X117.96Y-114.44
X119.42Y-43.5
X119.42Y-51.44
X120.5Y-106.5
X120.5Y-114.44
X121.96Y-43.5
X121.96Y-51.44
X123.04Y-106.5
X123.04Y-114.44
X124.5Y-43.5
X124.5Y-51.44
X125.58Y-106.5
X125.58Y-114.44
X127.04Y-43.5
X127.04Y-51.44
X128.12Y-106.5
X128.12Y-114.44
X129.58Y-43.5
X129.58Y-51.44
X130.66Y-106.5
X130.66Y-114.44
X132.12Y-43.5
X132.12Y-51.44
X133.2Y-106.5
X133.2Y-114.44
X134.66Y-43.5
X134.66Y-51.44
X135.74Y-106.5
X135.74Y-114.44
X137.2Y-43.5
X137.2Y-51.44
X149.42Y-105.5
X149.42Y-113.44
X150.92Y-44.0
X150.92Y-51.94
X151.96Y-105.5
X151.96Y-113.44
X153.46Y-44.0
X153.46Y-51.94
X154.5Y-105.5
X154.5Y-113.44
X156.0Y-44.0
X156.0Y-51.94
X157.04Y-105.5
X157.04Y-113.44
X158.54Y-44.0
X158.54Y-51.94
X159.58Y-105.5
X159.58Y-113.44
X161.08Y-44.0
X161.08Y-51.94
X162.12Y-105.5
X162.12Y-113.44
X163.62Y-44.0
X163.62Y-51.94
X164.66Y-105.5
X164.66Y-113.44
X166.16Y-44.0
X166.16Y-51.94
X167.2Y-105.5
X167.2Y-113.44
X168.7Y-44.0
X168.7Y-51.94
T4
X171.5Y-72.92
X171.5Y-75.46
X171.5Y-78.0
X171.5Y-80.54
X171.5Y-83.08
X171.5Y-85.62
X171.5Y-88.16
X171.5Y-90.7
X179.12Y-72.92
X179.12Y-75.46
X179.12Y-78.0
X179.12Y-80.54
X179.12Y-83.08
X179.12Y-85.62
X179.12Y-88.16
X179.12Y-90.7
X187.5Y-99.19
X187.5Y-106.81
X199.195Y-98.19
X199.195Y-100.73
X199.195Y-103.27
X199.195Y-105.81
X206.815Y-98.19
X206.815Y-100.73
X206.815Y-103.27
X206.815Y-105.81
T5
X51.5Y-77.92
X51.5Y-80.46
X51.5Y-83.0
X54.92Y-56.5
X57.0Y-40.0
X57.46Y-56.5
X58.19Y-119.5
X58.5Y-99.0
X59.54Y-40.0
X60.0Y-56.5
X60.73Y-119.5
X61.04Y-99.0
X62.08Y-40.0
X62.54Y-56.5
X63.27Y-119.5
X63.58Y-99.0
X64.62Y-40.0
X65.81Y-119.5
X66.12Y-99.0
X87.38Y-56.0
X89.46Y-38.0
X89.92Y-56.0
X91.19Y-117.5
X91.5Y-101.5
X92.0Y-38.0
X92.46Y-56.0
X93.73Y-117.5
X94.04Y-101.5
X94.54Y-38.0
X95.0Y-56.0
X96.27Y-117.5
X96.58Y-101.5
X97.08Y-38.0
X98.81Y-117.5
X99.12Y-101.5
X120.69Y-56.0
X122.69Y-38.5
X122.69Y-119.0
X123.23Y-56.0
X125.23Y-38.5
X125.23Y-119.0
X125.77Y-56.0
X126.19Y-102.0
X127.77Y-38.5
X127.77Y-119.0
X128.31Y-56.0
X128.73Y-102.0
X130.31Y-38.5
X130.31Y-119.0
X131.27Y-102.0
X133.81Y-102.0
X151.19Y-56.0
X153.73Y-56.0
X153.96Y-40.5
X156.27Y-56.0
X156.5Y-40.5
X157.15Y-99.53
X157.19Y-117.0
X158.81Y-56.0
X159.04Y-40.5
X159.69Y-99.53
X159.73Y-117.0
X161.58Y-40.5
X162.23Y-99.53
X162.27Y-117.0
X164.77Y-99.53
X164.81Y-117.0
X188.0Y-81.5
X188.0Y-84.04
X188.0Y-86.58
X188.0Y-89.12
X211.44Y-54.76
X211.44Y-70.0
X213.98Y-54.76
X213.98Y-70.0
X216.52Y-54.76
X216.52Y-70.0
X219.06Y-54.76
X219.06Y-70.0
X221.6Y-54.76
X221.6Y-70.0
X224.14Y-54.76
X224.14Y-70.0
X226.68Y-54.76
X226.68Y-70.0
X229.22Y-54.76
X229.22Y-70.0
X231.76Y-54.76
X231.76Y-70.0
X234.3Y-54.76
X234.3Y-70.0
X236.46Y-78.5
X236.84Y-54.76
X236.84Y-70.0
X239.0Y-78.5
X239.38Y-54.76
X239.38Y-70.0
X241.54Y-78.5
X241.92Y-54.76
X241.92Y-70.0
X244.46Y-54.76
X244.46Y-70.0
X247.0Y-54.76
X247.0Y-70.0
X248.34Y-94.5
X248.34Y-114.5
X249.54Y-54.76
X249.54Y-70.0
X250.88Y-94.5
X250.88Y-114.5
X252.08Y-54.76
X252.08Y-70.0
X253.42Y-94.5
X253.42Y-114.5
X254.62Y-54.76
X254.62Y-70.0
X255.96Y-94.5
X255.96Y-114.5
X257.16Y-54.76
X257.16Y-70.0
X258.5Y-94.5
X258.5Y-114.5
X259.7Y-54.76
X259.7Y-70.0
X261.04Y-94.5
X261.04Y-114.5
X262.24Y-54.76
X262.24Y-70.0
X263.58Y-94.5
X263.58Y-114.5
X264.78Y-54.76
X264.78Y-70.0
X266.12Y-94.5
X266.12Y-114.5
X267.32Y-54.76
X267.32Y-70.0
X268.66Y-94.5
X268.66Y-114.5
X269.86Y-54.76
X269.86Y-70.0
M30
