%TF.GenerationSoftware,KiCad,Pcbnew,10.0.4*%
%TF.CreationDate,2026-09-01T23:21:41-05:00*%
%TF.ProjectId,TestProj1,54657374-5072-46f6-9a31-2e6b69636164,rev?*%
%TF.SameCoordinates,Original*%
%TF.FileFunction,Soldermask,Top*%
%TF.FilePolarity,Negative*%
%FSLAX46Y46*%
G04 Gerber Fmt 4.6, Leading zero omitted, Abs format (unit mm)*
G04 Created by KiCad (PCBNEW 10.0.4) date 2026-09-01 23:21:41*
%MOMM*%
%LPD*%
G01*
G04 APERTURE LIST*
G04 Aperture macros list*
%AMRoundRect*
0 Rectangle with rounded corners*
0 $1 Rounding radius*
0 $2 $3 $4 $5 $6 $7 $8 $9 X,Y pos of 4 corners*
0 Add a 4 corners polygon primitive as box body*
4,1,4,$2,$3,$4,$5,$6,$7,$8,$9,$2,$3,0*
0 Add four circle primitives for the rounded corners*
1,1,$1+$1,$2,$3*
1,1,$1+$1,$4,$5*
1,1,$1+$1,$6,$7*
1,1,$1+$1,$8,$9*
0 Add four rect primitives between the rounded corners*
20,1,$1+$1,$2,$3,$4,$5,0*
20,1,$1+$1,$4,$5,$6,$7,0*
20,1,$1+$1,$6,$7,$8,$9,0*
20,1,$1+$1,$8,$9,$2,$3,0*%
G04 Aperture macros list end*
%ADD10C,1.700000*%
%ADD11R,1.700000X1.700000*%
%ADD12RoundRect,0.102000X0.565000X-0.565000X0.565000X0.565000X-0.565000X0.565000X-0.565000X-0.565000X0*%
%ADD13C,1.334000*%
%ADD14RoundRect,0.102000X-0.565000X0.565000X-0.565000X-0.565000X0.565000X-0.565000X0.565000X0.565000X0*%
%ADD15RoundRect,0.250000X-0.550000X0.550000X-0.550000X-0.550000X0.550000X-0.550000X0.550000X0.550000X0*%
%ADD16C,1.600000*%
%ADD17RoundRect,0.250000X-0.650000X-2.450000X0.650000X-2.450000X0.650000X2.450000X-0.650000X2.450000X0*%
%ADD18R,0.850000X0.850000*%
%ADD19C,0.850000*%
%ADD20RoundRect,0.250000X0.262500X0.450000X-0.262500X0.450000X-0.262500X-0.450000X0.262500X-0.450000X0*%
%ADD21RoundRect,0.250000X-0.450000X0.262500X-0.450000X-0.262500X0.450000X-0.262500X0.450000X0.262500X0*%
%ADD22RoundRect,0.250000X0.650000X2.450000X-0.650000X2.450000X-0.650000X-2.450000X0.650000X-2.450000X0*%
%ADD23RoundRect,0.250000X-0.262500X-0.450000X0.262500X-0.450000X0.262500X0.450000X-0.262500X0.450000X0*%
%ADD24RoundRect,0.250000X-0.550000X-0.550000X0.550000X-0.550000X0.550000X0.550000X-0.550000X0.550000X0*%
G04 APERTURE END LIST*
D10*
%TO.C,J15*%
X188000000Y-89120000D03*
X188000000Y-86580000D03*
X188000000Y-84040000D03*
D11*
X188000000Y-81500000D03*
%TD*%
%TO.C,J24*%
X120690000Y-56000000D03*
D10*
X123230000Y-56000000D03*
X125770000Y-56000000D03*
X128310000Y-56000000D03*
%TD*%
D11*
%TO.C,J22*%
X164770000Y-99530000D03*
D10*
X162230000Y-99530000D03*
X159690000Y-99530000D03*
X157150000Y-99530000D03*
%TD*%
D12*
%TO.C,U4*%
X54110000Y-51470000D03*
D13*
X56650000Y-51470000D03*
X59190000Y-51470000D03*
X61730000Y-51470000D03*
X64270000Y-51470000D03*
X66810000Y-51470000D03*
X69350000Y-51470000D03*
X71890000Y-51470000D03*
X71890000Y-43530000D03*
X69350000Y-43530000D03*
X66810000Y-43530000D03*
X64270000Y-43530000D03*
X61730000Y-43530000D03*
X59190000Y-43530000D03*
X56650000Y-43530000D03*
X54110000Y-43530000D03*
%TD*%
D14*
%TO.C,U9*%
X167200000Y-105500000D03*
D13*
X164660000Y-105500000D03*
X162120000Y-105500000D03*
X159580000Y-105500000D03*
X157040000Y-105500000D03*
X154500000Y-105500000D03*
X151960000Y-105500000D03*
X149420000Y-105500000D03*
X149420000Y-113440000D03*
X151960000Y-113440000D03*
X154500000Y-113440000D03*
X157040000Y-113440000D03*
X159580000Y-113440000D03*
X162120000Y-113440000D03*
X164660000Y-113440000D03*
X167200000Y-113440000D03*
%TD*%
D11*
%TO.C,J16*%
X236460000Y-78500000D03*
D10*
X239000000Y-78500000D03*
X241540000Y-78500000D03*
%TD*%
D11*
%TO.C,J6*%
X248340000Y-114500000D03*
D10*
X250880000Y-114500000D03*
X253420000Y-114500000D03*
X255960000Y-114500000D03*
X258500000Y-114500000D03*
X261040000Y-114500000D03*
X263580000Y-114500000D03*
X266120000Y-114500000D03*
X268660000Y-114500000D03*
%TD*%
D11*
%TO.C,J10*%
X54920000Y-56500000D03*
D10*
X57460000Y-56500000D03*
X60000000Y-56500000D03*
X62540000Y-56500000D03*
%TD*%
D15*
%TO.C,D1*%
X187500000Y-99190000D03*
D16*
X187500000Y-106810000D03*
%TD*%
D11*
%TO.C,J2*%
X269860000Y-70000000D03*
D10*
X267320000Y-70000000D03*
X264780000Y-70000000D03*
X262240000Y-70000000D03*
X259700000Y-70000000D03*
X257160000Y-70000000D03*
X254620000Y-70000000D03*
X252080000Y-70000000D03*
X249540000Y-70000000D03*
X247000000Y-70000000D03*
X244460000Y-70000000D03*
X241920000Y-70000000D03*
X239380000Y-70000000D03*
X236840000Y-70000000D03*
X234300000Y-70000000D03*
X231760000Y-70000000D03*
X229220000Y-70000000D03*
X226680000Y-70000000D03*
X224140000Y-70000000D03*
X221600000Y-70000000D03*
X219060000Y-70000000D03*
X216520000Y-70000000D03*
X213980000Y-70000000D03*
X211440000Y-70000000D03*
%TD*%
D17*
%TO.C,C1*%
X210950000Y-93500000D03*
X216050000Y-93500000D03*
%TD*%
D12*
%TO.C,U8*%
X86420000Y-51440000D03*
D13*
X88960000Y-51440000D03*
X91500000Y-51440000D03*
X94040000Y-51440000D03*
X96580000Y-51440000D03*
X99120000Y-51440000D03*
X101660000Y-51440000D03*
X104200000Y-51440000D03*
X104200000Y-43500000D03*
X101660000Y-43500000D03*
X99120000Y-43500000D03*
X96580000Y-43500000D03*
X94040000Y-43500000D03*
X91500000Y-43500000D03*
X88960000Y-43500000D03*
X86420000Y-43500000D03*
%TD*%
D18*
%TO.C,J18*%
X193000000Y-39500000D03*
D19*
X193000000Y-40500000D03*
%TD*%
D11*
%TO.C,J7*%
X97080000Y-38000000D03*
D10*
X94540000Y-38000000D03*
X92000000Y-38000000D03*
X89460000Y-38000000D03*
%TD*%
D20*
%TO.C,R3*%
X182412500Y-97000000D03*
X180587500Y-97000000D03*
%TD*%
D17*
%TO.C,C6*%
X70450000Y-125000000D03*
X75550000Y-125000000D03*
%TD*%
D21*
%TO.C,R1*%
X217000000Y-111087500D03*
X217000000Y-112912500D03*
%TD*%
D11*
%TO.C,J26*%
X151190000Y-56000000D03*
D10*
X153730000Y-56000000D03*
X156270000Y-56000000D03*
X158810000Y-56000000D03*
%TD*%
D17*
%TO.C,C8*%
X138450000Y-121000000D03*
X143550000Y-121000000D03*
%TD*%
D18*
%TO.C,J3*%
X184500000Y-39500000D03*
D19*
X184500000Y-40500000D03*
%TD*%
D22*
%TO.C,C2*%
X147050000Y-37000000D03*
X141950000Y-37000000D03*
%TD*%
%TO.C,C5*%
X50050000Y-40000000D03*
X44950000Y-40000000D03*
%TD*%
D11*
%TO.C,J8*%
X87380000Y-56000000D03*
D10*
X89920000Y-56000000D03*
X92460000Y-56000000D03*
X95000000Y-56000000D03*
%TD*%
D23*
%TO.C,R2*%
X213587500Y-101000000D03*
X215412500Y-101000000D03*
%TD*%
D11*
%TO.C,J5*%
X269860000Y-54760000D03*
D10*
X267320000Y-54760000D03*
X264780000Y-54760000D03*
X262240000Y-54760000D03*
X259700000Y-54760000D03*
X257160000Y-54760000D03*
X254620000Y-54760000D03*
X252080000Y-54760000D03*
X249540000Y-54760000D03*
X247000000Y-54760000D03*
X244460000Y-54760000D03*
X241920000Y-54760000D03*
X239380000Y-54760000D03*
X236840000Y-54760000D03*
X234300000Y-54760000D03*
X231760000Y-54760000D03*
X229220000Y-54760000D03*
X226680000Y-54760000D03*
X224140000Y-54760000D03*
X221600000Y-54760000D03*
X219060000Y-54760000D03*
X216520000Y-54760000D03*
X213980000Y-54760000D03*
X211440000Y-54760000D03*
%TD*%
D11*
%TO.C,J11*%
X58190000Y-119500000D03*
D10*
X60730000Y-119500000D03*
X63270000Y-119500000D03*
X65810000Y-119500000D03*
%TD*%
D14*
%TO.C,U7*%
X135740000Y-106500000D03*
D13*
X133200000Y-106500000D03*
X130660000Y-106500000D03*
X128120000Y-106500000D03*
X125580000Y-106500000D03*
X123040000Y-106500000D03*
X120500000Y-106500000D03*
X117960000Y-106500000D03*
X117960000Y-114440000D03*
X120500000Y-114440000D03*
X123040000Y-114440000D03*
X125580000Y-114440000D03*
X128120000Y-114440000D03*
X130660000Y-114440000D03*
X133200000Y-114440000D03*
X135740000Y-114440000D03*
%TD*%
D12*
%TO.C,U10*%
X119420000Y-51440000D03*
D13*
X121960000Y-51440000D03*
X124500000Y-51440000D03*
X127040000Y-51440000D03*
X129580000Y-51440000D03*
X132120000Y-51440000D03*
X134660000Y-51440000D03*
X137200000Y-51440000D03*
X137200000Y-43500000D03*
X134660000Y-43500000D03*
X132120000Y-43500000D03*
X129580000Y-43500000D03*
X127040000Y-43500000D03*
X124500000Y-43500000D03*
X121960000Y-43500000D03*
X119420000Y-43500000D03*
%TD*%
D18*
%TO.C,J1*%
X178000000Y-102000000D03*
D19*
X178000000Y-103000000D03*
%TD*%
D17*
%TO.C,C7*%
X102950000Y-122000000D03*
X108050000Y-122000000D03*
%TD*%
D24*
%TO.C,U1*%
X199195000Y-98190000D03*
D16*
X199195000Y-100730000D03*
X199195000Y-103270000D03*
X199195000Y-105810000D03*
X206815000Y-105810000D03*
X206815000Y-103270000D03*
X206815000Y-100730000D03*
X206815000Y-98190000D03*
%TD*%
D11*
%TO.C,J17*%
X51500000Y-77920000D03*
D10*
X51500000Y-80460000D03*
X51500000Y-83000000D03*
%TD*%
D22*
%TO.C,C3*%
X115050000Y-37000000D03*
X109950000Y-37000000D03*
%TD*%
D11*
%TO.C,J14*%
X99120000Y-101500000D03*
D10*
X96580000Y-101500000D03*
X94040000Y-101500000D03*
X91500000Y-101500000D03*
%TD*%
D24*
%TO.C,U2*%
X171500000Y-72920000D03*
D16*
X171500000Y-75460000D03*
X171500000Y-78000000D03*
X171500000Y-80540000D03*
X171500000Y-83080000D03*
X171500000Y-85620000D03*
X171500000Y-88160000D03*
X171500000Y-90700000D03*
X179120000Y-90700000D03*
X179120000Y-88160000D03*
X179120000Y-85620000D03*
X179120000Y-83080000D03*
X179120000Y-80540000D03*
X179120000Y-78000000D03*
X179120000Y-75460000D03*
X179120000Y-72920000D03*
%TD*%
D11*
%TO.C,J12*%
X66120000Y-99000000D03*
D10*
X63580000Y-99000000D03*
X61040000Y-99000000D03*
X58500000Y-99000000D03*
%TD*%
D17*
%TO.C,C9*%
X172950000Y-120000000D03*
X178050000Y-120000000D03*
%TD*%
D11*
%TO.C,J21*%
X157190000Y-117000000D03*
D10*
X159730000Y-117000000D03*
X162270000Y-117000000D03*
X164810000Y-117000000D03*
%TD*%
D11*
%TO.C,J13*%
X91190000Y-117500000D03*
D10*
X93730000Y-117500000D03*
X96270000Y-117500000D03*
X98810000Y-117500000D03*
%TD*%
D11*
%TO.C,J20*%
X133810000Y-102000000D03*
D10*
X131270000Y-102000000D03*
X128730000Y-102000000D03*
X126190000Y-102000000D03*
%TD*%
D11*
%TO.C,J4*%
X248340000Y-94500000D03*
D10*
X250880000Y-94500000D03*
X253420000Y-94500000D03*
X255960000Y-94500000D03*
X258500000Y-94500000D03*
X261040000Y-94500000D03*
X263580000Y-94500000D03*
X266120000Y-94500000D03*
X268660000Y-94500000D03*
%TD*%
D14*
%TO.C,U11*%
X67890000Y-106030000D03*
D13*
X65350000Y-106030000D03*
X62810000Y-106030000D03*
X60270000Y-106030000D03*
X57730000Y-106030000D03*
X55190000Y-106030000D03*
X52650000Y-106030000D03*
X50110000Y-106030000D03*
X50110000Y-113970000D03*
X52650000Y-113970000D03*
X55190000Y-113970000D03*
X57730000Y-113970000D03*
X60270000Y-113970000D03*
X62810000Y-113970000D03*
X65350000Y-113970000D03*
X67890000Y-113970000D03*
%TD*%
D11*
%TO.C,J19*%
X122690000Y-119000000D03*
D10*
X125230000Y-119000000D03*
X127770000Y-119000000D03*
X130310000Y-119000000D03*
%TD*%
D22*
%TO.C,C4*%
X82050000Y-37000000D03*
X76950000Y-37000000D03*
%TD*%
D11*
%TO.C,J25*%
X161580000Y-40500000D03*
D10*
X159040000Y-40500000D03*
X156500000Y-40500000D03*
X153960000Y-40500000D03*
%TD*%
D11*
%TO.C,J9*%
X64620000Y-40000000D03*
D10*
X62080000Y-40000000D03*
X59540000Y-40000000D03*
X57000000Y-40000000D03*
%TD*%
D11*
%TO.C,J23*%
X130310000Y-38500000D03*
D10*
X127770000Y-38500000D03*
X125230000Y-38500000D03*
X122690000Y-38500000D03*
%TD*%
D14*
%TO.C,U6*%
X101200000Y-106000000D03*
D13*
X98660000Y-106000000D03*
X96120000Y-106000000D03*
X93580000Y-106000000D03*
X91040000Y-106000000D03*
X88500000Y-106000000D03*
X85960000Y-106000000D03*
X83420000Y-106000000D03*
X83420000Y-113940000D03*
X85960000Y-113940000D03*
X88500000Y-113940000D03*
X91040000Y-113940000D03*
X93580000Y-113940000D03*
X96120000Y-113940000D03*
X98660000Y-113940000D03*
X101200000Y-113940000D03*
%TD*%
D12*
%TO.C,U3*%
X150920000Y-51940000D03*
D13*
X153460000Y-51940000D03*
X156000000Y-51940000D03*
X158540000Y-51940000D03*
X161080000Y-51940000D03*
X163620000Y-51940000D03*
X166160000Y-51940000D03*
X168700000Y-51940000D03*
X168700000Y-44000000D03*
X166160000Y-44000000D03*
X163620000Y-44000000D03*
X161080000Y-44000000D03*
X158540000Y-44000000D03*
X156000000Y-44000000D03*
X153460000Y-44000000D03*
X150920000Y-44000000D03*
%TD*%
M02*
